<mxfile host="app.diagrams.net" modified="2024-02-23T16:18:25.320Z" agent="Mozilla/5.0 (Linux; Android 9) AppleWebKit/537.36 (KHTML, like Gecko) YaBrowser/24.1.0.0 YaBrowser/24.1.0.0 Mobile Safari/537.36" etag="AXykRL0OlMyCy0QJnLwm" version="23.1.6" type="device">
  <diagram name="Страница — 1" id="zH9JzPqyWmbiLqWfGP9T">
    <mxGraphModel dx="1132" dy="874" grid="0" gridSize="10" guides="1" tooltips="1" connect="1" arrows="1" fold="1" page="0" pageScale="1" pageWidth="827" pageHeight="1169" math="0" shadow="0">
      <root>
        <mxCell id="0" />
        <mxCell id="1" parent="0" />
        <mxCell id="67bxBOq4B8Fmjtbfpx6i-1" value="Class&lt;br&gt;Animals" style="swimlane;fontStyle=0;childLayout=stackLayout;horizontal=1;startSize=30;horizontalStack=0;resizeParent=1;resizeParentMax=0;resizeLast=0;collapsible=1;marginBottom=0;whiteSpace=wrap;html=1;" vertex="1" parent="1">
          <mxGeometry x="38" y="-154" width="236" height="60" as="geometry">
            <mxRectangle x="38" y="-154" width="78" height="41" as="alternateBounds" />
          </mxGeometry>
        </mxCell>
        <mxCell id="67bxBOq4B8Fmjtbfpx6i-5" value="Class&lt;br&gt;Pets" style="swimlane;fontStyle=0;childLayout=stackLayout;horizontal=1;startSize=30;horizontalStack=0;resizeParent=1;resizeParentMax=0;resizeLast=0;collapsible=1;marginBottom=0;whiteSpace=wrap;html=1;" vertex="1" parent="1">
          <mxGeometry x="-151" y="-19" width="236" height="60" as="geometry">
            <mxRectangle x="38" y="-154" width="78" height="41" as="alternateBounds" />
          </mxGeometry>
        </mxCell>
        <mxCell id="67bxBOq4B8Fmjtbfpx6i-6" value="Class&lt;br&gt;Pack_animals" style="swimlane;fontStyle=0;childLayout=stackLayout;horizontal=1;startSize=30;horizontalStack=0;resizeParent=1;resizeParentMax=0;resizeLast=0;collapsible=1;marginBottom=0;whiteSpace=wrap;html=1;" vertex="1" parent="1">
          <mxGeometry x="233" y="-19" width="236" height="60" as="geometry">
            <mxRectangle x="38" y="-154" width="78" height="41" as="alternateBounds" />
          </mxGeometry>
        </mxCell>
        <mxCell id="67bxBOq4B8Fmjtbfpx6i-7" value="Class&lt;br&gt;Dogs" style="swimlane;fontStyle=0;childLayout=stackLayout;horizontal=1;startSize=30;horizontalStack=0;resizeParent=1;resizeParentMax=0;resizeLast=0;collapsible=1;marginBottom=0;whiteSpace=wrap;html=1;" vertex="1" collapsed="1" parent="1">
          <mxGeometry x="-217" y="95" width="78" height="41" as="geometry">
            <mxRectangle x="-217" y="95" width="236" height="60" as="alternateBounds" />
          </mxGeometry>
        </mxCell>
        <mxCell id="67bxBOq4B8Fmjtbfpx6i-8" value="Class&lt;br&gt;Cats" style="swimlane;fontStyle=0;childLayout=stackLayout;horizontal=1;startSize=30;horizontalStack=0;resizeParent=1;resizeParentMax=0;resizeLast=0;collapsible=1;marginBottom=0;whiteSpace=wrap;html=1;" vertex="1" collapsed="1" parent="1">
          <mxGeometry x="-98" y="95" width="78" height="41" as="geometry">
            <mxRectangle x="-217" y="95" width="236" height="60" as="alternateBounds" />
          </mxGeometry>
        </mxCell>
        <mxCell id="67bxBOq4B8Fmjtbfpx6i-9" value="Class&lt;br&gt;Hamster" style="swimlane;fontStyle=0;childLayout=stackLayout;horizontal=1;startSize=30;horizontalStack=0;resizeParent=1;resizeParentMax=0;resizeLast=0;collapsible=1;marginBottom=0;whiteSpace=wrap;html=1;" vertex="1" collapsed="1" parent="1">
          <mxGeometry x="21" y="95" width="78" height="41" as="geometry">
            <mxRectangle x="-217" y="95" width="236" height="60" as="alternateBounds" />
          </mxGeometry>
        </mxCell>
        <mxCell id="67bxBOq4B8Fmjtbfpx6i-10" value="Class&lt;br&gt;Horses" style="swimlane;fontStyle=0;childLayout=stackLayout;horizontal=1;startSize=30;horizontalStack=0;resizeParent=1;resizeParentMax=0;resizeLast=0;collapsible=1;marginBottom=0;whiteSpace=wrap;html=1;" vertex="1" collapsed="1" parent="1">
          <mxGeometry x="173" y="95" width="78" height="41" as="geometry">
            <mxRectangle x="-217" y="95" width="236" height="60" as="alternateBounds" />
          </mxGeometry>
        </mxCell>
        <mxCell id="67bxBOq4B8Fmjtbfpx6i-11" value="Class&lt;br&gt;Camels" style="swimlane;fontStyle=0;childLayout=stackLayout;horizontal=1;startSize=30;horizontalStack=0;resizeParent=1;resizeParentMax=0;resizeLast=0;collapsible=1;marginBottom=0;whiteSpace=wrap;html=1;" vertex="1" collapsed="1" parent="1">
          <mxGeometry x="292" y="95" width="78" height="41" as="geometry">
            <mxRectangle x="-217" y="95" width="236" height="60" as="alternateBounds" />
          </mxGeometry>
        </mxCell>
        <mxCell id="67bxBOq4B8Fmjtbfpx6i-12" value="Class&lt;br&gt;Donkeys" style="swimlane;fontStyle=0;childLayout=stackLayout;horizontal=1;startSize=30;horizontalStack=0;resizeParent=1;resizeParentMax=0;resizeLast=0;collapsible=1;marginBottom=0;whiteSpace=wrap;html=1;" vertex="1" collapsed="1" parent="1">
          <mxGeometry x="411" y="95" width="78" height="41" as="geometry">
            <mxRectangle x="-217" y="95" width="236" height="60" as="alternateBounds" />
          </mxGeometry>
        </mxCell>
        <mxCell id="67bxBOq4B8Fmjtbfpx6i-15" value="" style="endArrow=classic;html=1;rounded=0;fontSize=12;startSize=8;endSize=8;exitX=0.5;exitY=0;exitDx=0;exitDy=0;" edge="1" parent="1" source="67bxBOq4B8Fmjtbfpx6i-7">
          <mxGeometry relative="1" as="geometry">
            <mxPoint x="120" y="100" as="sourcePoint" />
            <mxPoint x="-71" y="44" as="targetPoint" />
          </mxGeometry>
        </mxCell>
        <mxCell id="67bxBOq4B8Fmjtbfpx6i-16" value="Label" style="edgeLabel;resizable=0;html=1;fontSize=12;;align=center;verticalAlign=middle;" connectable="0" vertex="1" parent="67bxBOq4B8Fmjtbfpx6i-15">
          <mxGeometry relative="1" as="geometry" />
        </mxCell>
        <mxCell id="67bxBOq4B8Fmjtbfpx6i-21" value="Extends" style="edgeLabel;html=1;align=center;verticalAlign=middle;resizable=0;points=[];fontSize=12;" vertex="1" connectable="0" parent="67bxBOq4B8Fmjtbfpx6i-15">
          <mxGeometry x="0.0192" y="-1" relative="1" as="geometry">
            <mxPoint as="offset" />
          </mxGeometry>
        </mxCell>
        <mxCell id="67bxBOq4B8Fmjtbfpx6i-22" value="" style="endArrow=classic;html=1;rounded=0;fontSize=12;startSize=8;endSize=8;" edge="1" parent="1">
          <mxGeometry relative="1" as="geometry">
            <mxPoint x="-56" y="92" as="sourcePoint" />
            <mxPoint x="-46" y="42" as="targetPoint" />
          </mxGeometry>
        </mxCell>
        <mxCell id="67bxBOq4B8Fmjtbfpx6i-23" value="Label" style="edgeLabel;resizable=0;html=1;fontSize=12;;align=center;verticalAlign=middle;" connectable="0" vertex="1" parent="67bxBOq4B8Fmjtbfpx6i-22">
          <mxGeometry relative="1" as="geometry" />
        </mxCell>
        <mxCell id="67bxBOq4B8Fmjtbfpx6i-24" value="Extends" style="edgeLabel;html=1;align=center;verticalAlign=middle;resizable=0;points=[];fontSize=12;" vertex="1" connectable="0" parent="67bxBOq4B8Fmjtbfpx6i-22">
          <mxGeometry x="0.0192" y="-1" relative="1" as="geometry">
            <mxPoint as="offset" />
          </mxGeometry>
        </mxCell>
        <mxCell id="67bxBOq4B8Fmjtbfpx6i-25" value="" style="endArrow=classic;html=1;rounded=0;fontSize=12;startSize=8;endSize=8;" edge="1" parent="1">
          <mxGeometry relative="1" as="geometry">
            <mxPoint x="57" y="89" as="sourcePoint" />
            <mxPoint x="1" y="40" as="targetPoint" />
          </mxGeometry>
        </mxCell>
        <mxCell id="67bxBOq4B8Fmjtbfpx6i-26" value="Label" style="edgeLabel;resizable=0;html=1;fontSize=12;;align=center;verticalAlign=middle;" connectable="0" vertex="1" parent="67bxBOq4B8Fmjtbfpx6i-25">
          <mxGeometry relative="1" as="geometry" />
        </mxCell>
        <mxCell id="67bxBOq4B8Fmjtbfpx6i-27" value="Extends" style="edgeLabel;html=1;align=center;verticalAlign=middle;resizable=0;points=[];fontSize=12;" vertex="1" connectable="0" parent="67bxBOq4B8Fmjtbfpx6i-25">
          <mxGeometry x="0.0192" y="-1" relative="1" as="geometry">
            <mxPoint as="offset" />
          </mxGeometry>
        </mxCell>
        <mxCell id="67bxBOq4B8Fmjtbfpx6i-28" value="" style="endArrow=classic;html=1;rounded=0;fontSize=12;startSize=8;endSize=8;" edge="1" parent="1">
          <mxGeometry relative="1" as="geometry">
            <mxPoint x="212" y="94" as="sourcePoint" />
            <mxPoint x="278" y="41" as="targetPoint" />
          </mxGeometry>
        </mxCell>
        <mxCell id="67bxBOq4B8Fmjtbfpx6i-29" value="Label" style="edgeLabel;resizable=0;html=1;fontSize=12;;align=center;verticalAlign=middle;" connectable="0" vertex="1" parent="67bxBOq4B8Fmjtbfpx6i-28">
          <mxGeometry relative="1" as="geometry" />
        </mxCell>
        <mxCell id="67bxBOq4B8Fmjtbfpx6i-30" value="Extends" style="edgeLabel;html=1;align=center;verticalAlign=middle;resizable=0;points=[];fontSize=12;" vertex="1" connectable="0" parent="67bxBOq4B8Fmjtbfpx6i-28">
          <mxGeometry x="0.0192" y="-1" relative="1" as="geometry">
            <mxPoint as="offset" />
          </mxGeometry>
        </mxCell>
        <mxCell id="67bxBOq4B8Fmjtbfpx6i-31" value="" style="endArrow=classic;html=1;rounded=0;fontSize=12;startSize=8;endSize=8;" edge="1" parent="1">
          <mxGeometry relative="1" as="geometry">
            <mxPoint x="327" y="90" as="sourcePoint" />
            <mxPoint x="320" y="43" as="targetPoint" />
          </mxGeometry>
        </mxCell>
        <mxCell id="67bxBOq4B8Fmjtbfpx6i-32" value="Label" style="edgeLabel;resizable=0;html=1;fontSize=12;;align=center;verticalAlign=middle;" connectable="0" vertex="1" parent="67bxBOq4B8Fmjtbfpx6i-31">
          <mxGeometry relative="1" as="geometry" />
        </mxCell>
        <mxCell id="67bxBOq4B8Fmjtbfpx6i-33" value="Extends" style="edgeLabel;html=1;align=center;verticalAlign=middle;resizable=0;points=[];fontSize=12;" vertex="1" connectable="0" parent="67bxBOq4B8Fmjtbfpx6i-31">
          <mxGeometry x="0.0192" y="-1" relative="1" as="geometry">
            <mxPoint as="offset" />
          </mxGeometry>
        </mxCell>
        <mxCell id="67bxBOq4B8Fmjtbfpx6i-34" value="" style="endArrow=classic;html=1;rounded=0;fontSize=12;startSize=8;endSize=8;" edge="1" parent="1">
          <mxGeometry relative="1" as="geometry">
            <mxPoint x="444" y="92" as="sourcePoint" />
            <mxPoint x="385" y="43" as="targetPoint" />
          </mxGeometry>
        </mxCell>
        <mxCell id="67bxBOq4B8Fmjtbfpx6i-35" value="Label" style="edgeLabel;resizable=0;html=1;fontSize=12;;align=center;verticalAlign=middle;" connectable="0" vertex="1" parent="67bxBOq4B8Fmjtbfpx6i-34">
          <mxGeometry relative="1" as="geometry" />
        </mxCell>
        <mxCell id="67bxBOq4B8Fmjtbfpx6i-36" value="Extends" style="edgeLabel;html=1;align=center;verticalAlign=middle;resizable=0;points=[];fontSize=12;" vertex="1" connectable="0" parent="67bxBOq4B8Fmjtbfpx6i-34">
          <mxGeometry x="0.0192" y="-1" relative="1" as="geometry">
            <mxPoint as="offset" />
          </mxGeometry>
        </mxCell>
        <mxCell id="67bxBOq4B8Fmjtbfpx6i-40" value="" style="endArrow=classic;html=1;rounded=0;fontSize=12;startSize=8;endSize=8;entryX=0.5;entryY=1;entryDx=0;entryDy=0;exitX=0.5;exitY=0;exitDx=0;exitDy=0;" edge="1" parent="1" source="67bxBOq4B8Fmjtbfpx6i-5" target="67bxBOq4B8Fmjtbfpx6i-1">
          <mxGeometry relative="1" as="geometry">
            <mxPoint x="-46" y="102" as="sourcePoint" />
            <mxPoint x="-36" y="52" as="targetPoint" />
          </mxGeometry>
        </mxCell>
        <mxCell id="67bxBOq4B8Fmjtbfpx6i-41" value="Label" style="edgeLabel;resizable=0;html=1;fontSize=12;;align=center;verticalAlign=middle;" connectable="0" vertex="1" parent="67bxBOq4B8Fmjtbfpx6i-40">
          <mxGeometry relative="1" as="geometry" />
        </mxCell>
        <mxCell id="67bxBOq4B8Fmjtbfpx6i-42" value="Extends" style="edgeLabel;html=1;align=center;verticalAlign=middle;resizable=0;points=[];fontSize=12;" vertex="1" connectable="0" parent="67bxBOq4B8Fmjtbfpx6i-40">
          <mxGeometry x="0.0192" y="-1" relative="1" as="geometry">
            <mxPoint as="offset" />
          </mxGeometry>
        </mxCell>
        <mxCell id="67bxBOq4B8Fmjtbfpx6i-43" value="" style="endArrow=classic;html=1;rounded=0;fontSize=12;startSize=8;endSize=8;entryX=0.5;entryY=1;entryDx=0;entryDy=0;exitX=0.524;exitY=0.006;exitDx=0;exitDy=0;exitPerimeter=0;" edge="1" parent="1" source="67bxBOq4B8Fmjtbfpx6i-6" target="67bxBOq4B8Fmjtbfpx6i-1">
          <mxGeometry relative="1" as="geometry">
            <mxPoint x="355" y="-26" as="sourcePoint" />
            <mxPoint x="166" y="-84" as="targetPoint" />
          </mxGeometry>
        </mxCell>
        <mxCell id="67bxBOq4B8Fmjtbfpx6i-44" value="Label" style="edgeLabel;resizable=0;html=1;fontSize=12;;align=center;verticalAlign=middle;" connectable="0" vertex="1" parent="67bxBOq4B8Fmjtbfpx6i-43">
          <mxGeometry relative="1" as="geometry" />
        </mxCell>
        <mxCell id="67bxBOq4B8Fmjtbfpx6i-45" value="Extends" style="edgeLabel;html=1;align=center;verticalAlign=middle;resizable=0;points=[];fontSize=12;" vertex="1" connectable="0" parent="67bxBOq4B8Fmjtbfpx6i-43">
          <mxGeometry x="0.0192" y="-1" relative="1" as="geometry">
            <mxPoint as="offset" />
          </mxGeometry>
        </mxCell>
      </root>
    </mxGraphModel>
  </diagram>
</mxfile>
